<svg width="47" height="47" viewBox="0 0 47 47" fill="none" xmlns="http://www.w3.org/2000/svg">
<path d="M22.7167 32.9C22.5109 33.6458 22.1603 34.3438 21.6848 34.9541C21.2093 35.5644 20.6183 36.075 19.9455 36.4569C19.2726 36.8388 18.5312 37.0844 17.7634 37.1797C16.9957 37.2751 16.2166 37.2182 15.4708 37.0125C14.725 36.8068 14.0271 36.4561 13.4168 35.9807C12.8065 35.5052 12.2958 34.9141 11.9139 34.2413C11.532 33.5685 11.2864 32.827 11.1911 32.0592C11.0958 31.2915 11.1526 30.5125 11.3583 29.7667M5.875 21.5417L41.125 11.75V35.25L5.875 27.4167V21.5417Z" stroke="#424242" stroke-width="4" stroke-linecap="round" stroke-linejoin="round"/>
</svg>
